<mxfile host="app.diagrams.net" agent="Mozilla/5.0 (Windows NT 10.0; Win64; x64) AppleWebKit/537.36 (KHTML, like Gecko) Chrome/129.0.0.0 Safari/537.36" version="24.7.16">
  <diagram name="PÃ¡gina-1" id="YroHcQRQfUu3PY1tD6XN">
    <mxGraphModel dx="1194" dy="750" grid="1" gridSize="10" guides="1" tooltips="1" connect="1" arrows="1" fold="1" page="1" pageScale="1" pageWidth="827" pageHeight="1169" math="0" shadow="0">
      <root>
        <mxCell id="0" />
        <mxCell id="1" parent="0" />
        <mxCell id="TsyOXeWnJBEFi_HCWn3W-2" value="JOGADOR" style="whiteSpace=wrap;html=1;align=center;" vertex="1" parent="1">
          <mxGeometry x="130" y="240" width="100" height="40" as="geometry" />
        </mxCell>
        <mxCell id="TsyOXeWnJBEFi_HCWn3W-3" value="JOGO" style="whiteSpace=wrap;html=1;align=center;" vertex="1" parent="1">
          <mxGeometry x="364" y="570" width="100" height="40" as="geometry" />
        </mxCell>
        <mxCell id="TsyOXeWnJBEFi_HCWn3W-4" value="EQUIPA" style="whiteSpace=wrap;html=1;align=center;" vertex="1" parent="1">
          <mxGeometry x="540" y="240" width="100" height="40" as="geometry" />
        </mxCell>
        <mxCell id="TsyOXeWnJBEFi_HCWn3W-6" value="NumInterno" style="ellipse;whiteSpace=wrap;html=1;align=center;fontStyle=4;" vertex="1" parent="1">
          <mxGeometry x="464" y="320" width="100" height="40" as="geometry" />
        </mxCell>
        <mxCell id="TsyOXeWnJBEFi_HCWn3W-7" value="Numero" style="ellipse;whiteSpace=wrap;html=1;align=center;fontStyle=4;" vertex="1" parent="1">
          <mxGeometry x="180" y="310" width="80" height="40" as="geometry" />
        </mxCell>
        <mxCell id="TsyOXeWnJBEFi_HCWn3W-9" value="Nome" style="ellipse;whiteSpace=wrap;html=1;align=center;" vertex="1" parent="1">
          <mxGeometry x="540" y="140" width="100" height="40" as="geometry" />
        </mxCell>
        <mxCell id="TsyOXeWnJBEFi_HCWn3W-10" value="Morada" style="ellipse;whiteSpace=wrap;html=1;align=center;" vertex="1" parent="1">
          <mxGeometry x="690" y="240" width="100" height="40" as="geometry" />
        </mxCell>
        <mxCell id="TsyOXeWnJBEFi_HCWn3W-12" value="AnoFundacao" style="ellipse;whiteSpace=wrap;html=1;align=center;" vertex="1" parent="1">
          <mxGeometry x="390" y="240" width="100" height="40" as="geometry" />
        </mxCell>
        <mxCell id="TsyOXeWnJBEFi_HCWn3W-13" value="" style="endArrow=none;html=1;rounded=0;entryX=0.15;entryY=1.025;entryDx=0;entryDy=0;entryPerimeter=0;exitX=0.62;exitY=0.05;exitDx=0;exitDy=0;exitPerimeter=0;" edge="1" parent="1" source="TsyOXeWnJBEFi_HCWn3W-6" target="TsyOXeWnJBEFi_HCWn3W-4">
          <mxGeometry width="50" height="50" relative="1" as="geometry">
            <mxPoint x="390" y="390" as="sourcePoint" />
            <mxPoint x="440" y="340" as="targetPoint" />
          </mxGeometry>
        </mxCell>
        <mxCell id="TsyOXeWnJBEFi_HCWn3W-14" value="" style="endArrow=none;html=1;rounded=0;entryX=0;entryY=0.5;entryDx=0;entryDy=0;exitX=1;exitY=0.5;exitDx=0;exitDy=0;" edge="1" parent="1" source="TsyOXeWnJBEFi_HCWn3W-12" target="TsyOXeWnJBEFi_HCWn3W-4">
          <mxGeometry width="50" height="50" relative="1" as="geometry">
            <mxPoint x="390" y="390" as="sourcePoint" />
            <mxPoint x="440" y="340" as="targetPoint" />
          </mxGeometry>
        </mxCell>
        <mxCell id="TsyOXeWnJBEFi_HCWn3W-15" value="" style="endArrow=none;html=1;rounded=0;entryX=1;entryY=0.5;entryDx=0;entryDy=0;exitX=0;exitY=0.5;exitDx=0;exitDy=0;" edge="1" parent="1" source="TsyOXeWnJBEFi_HCWn3W-10" target="TsyOXeWnJBEFi_HCWn3W-4">
          <mxGeometry width="50" height="50" relative="1" as="geometry">
            <mxPoint x="480" y="310" as="sourcePoint" />
            <mxPoint x="705" y="200" as="targetPoint" />
          </mxGeometry>
        </mxCell>
        <mxCell id="TsyOXeWnJBEFi_HCWn3W-16" value="Pais" style="ellipse;whiteSpace=wrap;html=1;align=center;" vertex="1" parent="1">
          <mxGeometry x="810" y="230" width="40" height="30" as="geometry" />
        </mxCell>
        <mxCell id="TsyOXeWnJBEFi_HCWn3W-17" value="Rua" style="ellipse;whiteSpace=wrap;html=1;align=center;" vertex="1" parent="1">
          <mxGeometry x="800" y="270" width="60" height="30" as="geometry" />
        </mxCell>
        <mxCell id="TsyOXeWnJBEFi_HCWn3W-18" value="CodPostal" style="ellipse;whiteSpace=wrap;html=1;align=center;" vertex="1" parent="1">
          <mxGeometry x="700" y="340" width="90" height="40" as="geometry" />
        </mxCell>
        <mxCell id="TsyOXeWnJBEFi_HCWn3W-19" value="Localidade" style="ellipse;whiteSpace=wrap;html=1;align=center;" vertex="1" parent="1">
          <mxGeometry x="630" y="300" width="76" height="40" as="geometry" />
        </mxCell>
        <mxCell id="TsyOXeWnJBEFi_HCWn3W-20" value="NumPorta" style="ellipse;whiteSpace=wrap;html=1;align=center;" vertex="1" parent="1">
          <mxGeometry x="790" y="320" width="80" height="40" as="geometry" />
        </mxCell>
        <mxCell id="TsyOXeWnJBEFi_HCWn3W-22" value="Nome" style="ellipse;whiteSpace=wrap;html=1;align=center;" vertex="1" parent="1">
          <mxGeometry x="20" y="245" width="70" height="30" as="geometry" />
        </mxCell>
        <mxCell id="TsyOXeWnJBEFi_HCWn3W-23" value="Genero" style="ellipse;whiteSpace=wrap;html=1;align=center;" vertex="1" parent="1">
          <mxGeometry x="90" y="310" width="70" height="40" as="geometry" />
        </mxCell>
        <mxCell id="TsyOXeWnJBEFi_HCWn3W-24" value="DataNascimento" style="ellipse;whiteSpace=wrap;html=1;align=center;" vertex="1" parent="1">
          <mxGeometry x="130" y="160" width="100" height="40" as="geometry" />
        </mxCell>
        <mxCell id="TsyOXeWnJBEFi_HCWn3W-28" value="Idade" style="ellipse;whiteSpace=wrap;html=1;align=center;dashed=1;" vertex="1" parent="1">
          <mxGeometry x="264" y="240" width="50" height="40" as="geometry" />
        </mxCell>
        <mxCell id="TsyOXeWnJBEFi_HCWn3W-30" value="NumJogo" style="ellipse;whiteSpace=wrap;html=1;align=center;fontStyle=4;" vertex="1" parent="1">
          <mxGeometry x="364" y="640" width="100" height="40" as="geometry" />
        </mxCell>
        <mxCell id="TsyOXeWnJBEFi_HCWn3W-31" value="Data" style="ellipse;whiteSpace=wrap;html=1;align=center;" vertex="1" parent="1">
          <mxGeometry x="490" y="640" width="56" height="40" as="geometry" />
        </mxCell>
        <mxCell id="TsyOXeWnJBEFi_HCWn3W-32" value="Local" style="ellipse;whiteSpace=wrap;html=1;align=center;" vertex="1" parent="1">
          <mxGeometry x="280" y="650" width="61" height="30" as="geometry" />
        </mxCell>
        <mxCell id="TsyOXeWnJBEFi_HCWn3W-33" value="Visitado" style="ellipse;whiteSpace=wrap;html=1;align=center;" vertex="1" parent="1">
          <mxGeometry x="500" y="575" width="80" height="30" as="geometry" />
        </mxCell>
        <mxCell id="TsyOXeWnJBEFi_HCWn3W-34" value="Resultado?" style="ellipse;whiteSpace=wrap;html=1;align=center;" vertex="1" parent="1">
          <mxGeometry x="369" y="500" width="90" height="40" as="geometry" />
        </mxCell>
        <mxCell id="TsyOXeWnJBEFi_HCWn3W-35" value="Visitante" style="ellipse;whiteSpace=wrap;html=1;align=center;" vertex="1" parent="1">
          <mxGeometry x="260" y="575" width="70" height="30" as="geometry" />
        </mxCell>
        <mxCell id="TsyOXeWnJBEFi_HCWn3W-36" value="" style="endArrow=none;html=1;rounded=0;entryX=0.5;entryY=1;entryDx=0;entryDy=0;exitX=0.5;exitY=0;exitDx=0;exitDy=0;" edge="1" parent="1" source="TsyOXeWnJBEFi_HCWn3W-30" target="TsyOXeWnJBEFi_HCWn3W-3">
          <mxGeometry width="50" height="50" relative="1" as="geometry">
            <mxPoint x="350" y="720" as="sourcePoint" />
            <mxPoint x="400" y="670" as="targetPoint" />
          </mxGeometry>
        </mxCell>
        <mxCell id="TsyOXeWnJBEFi_HCWn3W-37" value="" style="endArrow=none;html=1;rounded=0;entryX=0.18;entryY=1;entryDx=0;entryDy=0;entryPerimeter=0;exitX=1;exitY=0;exitDx=0;exitDy=0;" edge="1" parent="1" source="TsyOXeWnJBEFi_HCWn3W-32" target="TsyOXeWnJBEFi_HCWn3W-3">
          <mxGeometry width="50" height="50" relative="1" as="geometry">
            <mxPoint x="350" y="720" as="sourcePoint" />
            <mxPoint x="400" y="670" as="targetPoint" />
          </mxGeometry>
        </mxCell>
        <mxCell id="TsyOXeWnJBEFi_HCWn3W-38" value="" style="endArrow=none;html=1;rounded=0;entryX=0;entryY=0.5;entryDx=0;entryDy=0;exitX=1;exitY=0.5;exitDx=0;exitDy=0;" edge="1" parent="1" source="TsyOXeWnJBEFi_HCWn3W-35" target="TsyOXeWnJBEFi_HCWn3W-3">
          <mxGeometry width="50" height="50" relative="1" as="geometry">
            <mxPoint x="350" y="720" as="sourcePoint" />
            <mxPoint x="400" y="670" as="targetPoint" />
          </mxGeometry>
        </mxCell>
        <mxCell id="TsyOXeWnJBEFi_HCWn3W-39" value="" style="endArrow=none;html=1;rounded=0;entryX=0.87;entryY=1.025;entryDx=0;entryDy=0;entryPerimeter=0;exitX=0;exitY=0;exitDx=0;exitDy=0;" edge="1" parent="1" source="TsyOXeWnJBEFi_HCWn3W-31" target="TsyOXeWnJBEFi_HCWn3W-3">
          <mxGeometry width="50" height="50" relative="1" as="geometry">
            <mxPoint x="350" y="720" as="sourcePoint" />
            <mxPoint x="400" y="670" as="targetPoint" />
          </mxGeometry>
        </mxCell>
        <mxCell id="TsyOXeWnJBEFi_HCWn3W-40" value="" style="endArrow=none;html=1;rounded=0;entryX=0;entryY=0.5;entryDx=0;entryDy=0;exitX=1;exitY=0.5;exitDx=0;exitDy=0;" edge="1" parent="1" source="TsyOXeWnJBEFi_HCWn3W-3" target="TsyOXeWnJBEFi_HCWn3W-33">
          <mxGeometry width="50" height="50" relative="1" as="geometry">
            <mxPoint x="350" y="720" as="sourcePoint" />
            <mxPoint x="400" y="670" as="targetPoint" />
          </mxGeometry>
        </mxCell>
        <mxCell id="TsyOXeWnJBEFi_HCWn3W-41" value="" style="endArrow=none;html=1;rounded=0;entryX=0.5;entryY=1;entryDx=0;entryDy=0;exitX=0.5;exitY=0;exitDx=0;exitDy=0;" edge="1" parent="1" source="TsyOXeWnJBEFi_HCWn3W-3" target="TsyOXeWnJBEFi_HCWn3W-34">
          <mxGeometry width="50" height="50" relative="1" as="geometry">
            <mxPoint x="350" y="720" as="sourcePoint" />
            <mxPoint x="400" y="670" as="targetPoint" />
          </mxGeometry>
        </mxCell>
        <mxCell id="TsyOXeWnJBEFi_HCWn3W-43" value="" style="endArrow=none;html=1;rounded=0;entryX=0;entryY=1;entryDx=0;entryDy=0;exitX=0.645;exitY=0.075;exitDx=0;exitDy=0;exitPerimeter=0;" edge="1" parent="1" source="TsyOXeWnJBEFi_HCWn3W-19" target="TsyOXeWnJBEFi_HCWn3W-10">
          <mxGeometry width="50" height="50" relative="1" as="geometry">
            <mxPoint x="440" y="340" as="sourcePoint" />
            <mxPoint x="490" y="290" as="targetPoint" />
          </mxGeometry>
        </mxCell>
        <mxCell id="TsyOXeWnJBEFi_HCWn3W-44" value="" style="endArrow=none;html=1;rounded=0;entryX=0.41;entryY=0.975;entryDx=0;entryDy=0;entryPerimeter=0;exitX=0.5;exitY=0;exitDx=0;exitDy=0;" edge="1" parent="1" source="TsyOXeWnJBEFi_HCWn3W-18" target="TsyOXeWnJBEFi_HCWn3W-10">
          <mxGeometry width="50" height="50" relative="1" as="geometry">
            <mxPoint x="440" y="340" as="sourcePoint" />
            <mxPoint x="490" y="290" as="targetPoint" />
          </mxGeometry>
        </mxCell>
        <mxCell id="TsyOXeWnJBEFi_HCWn3W-45" value="" style="endArrow=none;html=1;rounded=0;entryX=0.74;entryY=0.9;entryDx=0;entryDy=0;exitX=0;exitY=0;exitDx=0;exitDy=0;entryPerimeter=0;" edge="1" parent="1" source="TsyOXeWnJBEFi_HCWn3W-20" target="TsyOXeWnJBEFi_HCWn3W-10">
          <mxGeometry width="50" height="50" relative="1" as="geometry">
            <mxPoint x="440" y="340" as="sourcePoint" />
            <mxPoint x="490" y="290" as="targetPoint" />
          </mxGeometry>
        </mxCell>
        <mxCell id="TsyOXeWnJBEFi_HCWn3W-46" value="" style="endArrow=none;html=1;rounded=0;entryX=0.95;entryY=0.675;entryDx=0;entryDy=0;exitX=0;exitY=0;exitDx=0;exitDy=0;entryPerimeter=0;" edge="1" parent="1" source="TsyOXeWnJBEFi_HCWn3W-17" target="TsyOXeWnJBEFi_HCWn3W-10">
          <mxGeometry width="50" height="50" relative="1" as="geometry">
            <mxPoint x="440" y="340" as="sourcePoint" />
            <mxPoint x="490" y="290" as="targetPoint" />
          </mxGeometry>
        </mxCell>
        <mxCell id="TsyOXeWnJBEFi_HCWn3W-47" value="" style="endArrow=none;html=1;rounded=0;entryX=0.94;entryY=0.3;entryDx=0;entryDy=0;entryPerimeter=0;exitX=0;exitY=0.5;exitDx=0;exitDy=0;" edge="1" parent="1" source="TsyOXeWnJBEFi_HCWn3W-16" target="TsyOXeWnJBEFi_HCWn3W-10">
          <mxGeometry width="50" height="50" relative="1" as="geometry">
            <mxPoint x="440" y="340" as="sourcePoint" />
            <mxPoint x="490" y="290" as="targetPoint" />
          </mxGeometry>
        </mxCell>
        <mxCell id="TsyOXeWnJBEFi_HCWn3W-48" value="" style="endArrow=none;html=1;rounded=0;entryX=0.5;entryY=0;entryDx=0;entryDy=0;exitX=0.5;exitY=1;exitDx=0;exitDy=0;" edge="1" parent="1" source="TsyOXeWnJBEFi_HCWn3W-9" target="TsyOXeWnJBEFi_HCWn3W-4">
          <mxGeometry width="50" height="50" relative="1" as="geometry">
            <mxPoint x="350" y="420" as="sourcePoint" />
            <mxPoint x="400" y="370" as="targetPoint" />
          </mxGeometry>
        </mxCell>
        <mxCell id="TsyOXeWnJBEFi_HCWn3W-49" value="" style="endArrow=none;html=1;rounded=0;entryX=1;entryY=0.5;entryDx=0;entryDy=0;exitX=0;exitY=0.5;exitDx=0;exitDy=0;" edge="1" parent="1" source="TsyOXeWnJBEFi_HCWn3W-28" target="TsyOXeWnJBEFi_HCWn3W-2">
          <mxGeometry width="50" height="50" relative="1" as="geometry">
            <mxPoint x="350" y="420" as="sourcePoint" />
            <mxPoint x="400" y="370" as="targetPoint" />
          </mxGeometry>
        </mxCell>
        <mxCell id="TsyOXeWnJBEFi_HCWn3W-50" value="" style="endArrow=none;html=1;rounded=0;entryX=0.5;entryY=1;entryDx=0;entryDy=0;exitX=0.5;exitY=0;exitDx=0;exitDy=0;" edge="1" parent="1" source="TsyOXeWnJBEFi_HCWn3W-2" target="TsyOXeWnJBEFi_HCWn3W-24">
          <mxGeometry width="50" height="50" relative="1" as="geometry">
            <mxPoint x="350" y="420" as="sourcePoint" />
            <mxPoint x="400" y="370" as="targetPoint" />
          </mxGeometry>
        </mxCell>
        <mxCell id="TsyOXeWnJBEFi_HCWn3W-51" value="" style="endArrow=none;html=1;rounded=0;entryX=1;entryY=0.5;entryDx=0;entryDy=0;exitX=0;exitY=0.5;exitDx=0;exitDy=0;" edge="1" parent="1" source="TsyOXeWnJBEFi_HCWn3W-2" target="TsyOXeWnJBEFi_HCWn3W-22">
          <mxGeometry width="50" height="50" relative="1" as="geometry">
            <mxPoint x="350" y="420" as="sourcePoint" />
            <mxPoint x="400" y="370" as="targetPoint" />
          </mxGeometry>
        </mxCell>
        <mxCell id="TsyOXeWnJBEFi_HCWn3W-52" value="" style="endArrow=none;html=1;rounded=0;entryX=0.11;entryY=1;entryDx=0;entryDy=0;entryPerimeter=0;exitX=0.5;exitY=0;exitDx=0;exitDy=0;" edge="1" parent="1" source="TsyOXeWnJBEFi_HCWn3W-23" target="TsyOXeWnJBEFi_HCWn3W-2">
          <mxGeometry width="50" height="50" relative="1" as="geometry">
            <mxPoint x="350" y="420" as="sourcePoint" />
            <mxPoint x="400" y="370" as="targetPoint" />
          </mxGeometry>
        </mxCell>
        <mxCell id="TsyOXeWnJBEFi_HCWn3W-53" value="" style="endArrow=none;html=1;rounded=0;entryX=0.75;entryY=1;entryDx=0;entryDy=0;exitX=0.5;exitY=0;exitDx=0;exitDy=0;" edge="1" parent="1" source="TsyOXeWnJBEFi_HCWn3W-7" target="TsyOXeWnJBEFi_HCWn3W-2">
          <mxGeometry width="50" height="50" relative="1" as="geometry">
            <mxPoint x="350" y="420" as="sourcePoint" />
            <mxPoint x="400" y="370" as="targetPoint" />
          </mxGeometry>
        </mxCell>
      </root>
    </mxGraphModel>
  </diagram>
</mxfile>
